<svg xmlns="http://www.w3.org/2000/svg" xmlns:xlink="http://www.w3.org/1999/xlink" width="1200px" height="1200px" viewBox="0 0 1200 1200">
    <g id="8527da0a-2fdf-4cfb-b097-5faf4ef627bd">
<filter id="SVGID_9" y="-23.7076%" height="147.4152%" x="-21.25%" width="142.5%" color-interpolation-filters="sRGB">
	<feGaussianBlur in="SourceAlpha" stdDeviation="7.5 7.5"></feGaussianBlur>
	<feOffset dx="0" dy="15" result="oBlur"></feOffset>
	<feFlood flood-color="rgb(33,36,42)" flood-opacity="1"></feFlood>
	<feComposite in2="oBlur" operator="in"></feComposite>
	<feMerge>
		<feMergeNode></feMergeNode>
		<feMergeNode in="SourceGraphic"></feMergeNode>
	</feMerge>
</filter>
<g style="filter: url(#SVGID_9);">
		<g id="8527da0a-2fdf-4cfb-b097-5faf4ef627bd-child-0">
<path style="stroke: rgb(193,193,193); stroke-opacity: 1.00; stroke-width: 0; stroke-dasharray: none; stroke-linecap: butt; stroke-dashoffset: 0; stroke-linejoin: miter; stroke-miterlimit: 4; fill: rgb(253,128,46); fill-opacity: 1.00; fill-rule: nonzero; opacity: 1;" transform="matrix(1.639612 0 0 1.639589 599.999857 600.00004) matrix(1 0 0 1 0 0)  translate(-511.019866, -489.523985)" d="M 504.35 730.79 C 449.09 686.19 385.89 650.84 315.19 625.02 C 311.72 623.75 309.25 622.37 309.69 621.96 C 310.14 621.55 313.88 618.54 318.02 615.27 C 331.90 604.32 339.66 594.86 354.08 571.26 L 357.66 565.41 L 367.58 563.28 C 388.47 558.80 433.00 553.19 433.00 555.04 C 433.00 555.39 428.51 566.66 423.01 580.09 C 417.52 593.51 413.02 605.02 413.01 605.65 C 413.01 606.29 414.53 608.09 416.41 609.65 C 418.28 611.22 428.94 620.83 440.09 631.00 C 451.25 641.17 469.62 657.77 480.94 667.87 C 492.25 677.97 503.84 688.51 506.70 691.29 L 511.90 696.33 L 514.88 693.92 C 516.51 692.59 525.45 684.53 534.73 676.00 C 548.51 663.34 595.71 620.86 609.95 608.29 L 613.41 605.25 L 610.16 596.87 C 608.37 592.27 603.07 578.78 598.39 566.89 L 589.87 545.28 L 582.19 544.63 C 569.14 543.52 472.74 543.10 449.50 544.06 C 424.53 545.08 394.19 547.97 376.50 551.02 C 365.29 552.95 345.66 557.47 343.99 558.51 C 343.58 558.76 340.83 562.57 337.89 566.98 C 334.94 571.39 332.30 574.99 332.02 574.97 C 331.73 574.95 311.81 548.57 287.75 516.34 L 244.00 457.73 L 244.00 525.86 L 244.00 593.99 L 247.39 597.75 C 249.26 599.82 255.10 603.98 260.38 607.00 C 265.66 610.03 269.98 612.76 269.99 613.08 C 269.99 613.40 264.94 615.26 258.75 617.22 C 240.30 623.05 188.83 639.53 169.21 645.88 C 159.15 649.14 151.33 651.28 151.84 650.65 C 152.35 650.02 159.56 640.54 167.88 629.60 L 183.00 609.70 L 182.97 504.10 L 182.94 398.50 L 164.91 386.00 C 155.00 379.12 146.12 372.95 145.19 372.28 C 143.85 371.32 154.38 371.06 195.58 371.03 L 247.67 371.00 L 251.04 375.25 C 252.89 377.59 268.17 396.38 285.00 417.00 C 301.82 437.62 319.31 459.13 323.87 464.78 L 332.14 475.06 L 338.38 466.28 C 341.81 461.45 351.75 447.83 360.46 436.00 C 369.18 424.17 383.30 404.94 391.85 393.25 L 407.38 372.00 L 419.18 372.00 L 430.97 372.00 L 428.61 377.25 C 421.25 393.54 393.93 452.31 381.41 478.78 C 373.41 495.68 366.65 510.00 366.38 510.61 C 366.04 511.38 368.08 511.30 373.09 510.35 C 403.27 504.65 433.77 502.97 507.75 502.97 C 543.09 502.96 572.00 502.83 572.00 502.67 C 572.00 501.85 565.06 485.44 542.97 434.00 C 529.63 402.92 517.33 374.24 515.65 370.25 C 513.97 366.27 512.30 363.34 511.93 363.75 C 510.93 364.89 473.08 453.06 462.25 479.50 L 457.33 491.50 L 436.42 493.15 C 416.27 494.74 393.58 497.46 390.49 498.64 C 389.67 498.96 389.00 498.94 389.00 498.61 C 389.00 497.05 424.46 421.46 443.01 383.50 C 449.72 369.75 458.27 352.20 462.00 344.50 C 493.35 279.77 511.13 243.47 511.82 242.78 C 512.27 242.33 524.05 265.71 538.00 294.73 C 607.31 438.93 670.28 565.61 684.29 589.00 C 689.38 597.49 701.02 610.14 711.35 618.40 L 716.21 622.27 L 707.85 625.16 C 674.77 636.61 630.69 657.01 598.00 675.99 C 574.51 689.63 540.90 713.08 521.50 729.36 C 518.20 732.13 514.76 735.01 513.85 735.76 C 512.41 736.96 511.24 736.35 504.35 730.79 Z M 845.00 642.61 C 831.53 638.06 805.31 629.65 786.75 623.92 C 768.19 618.19 753.02 613.28 753.04 613.00 C 753.06 612.72 758.05 609.62 764.14 606.10 C 771.45 601.88 775.85 598.65 777.10 596.60 C 778.91 593.64 778.99 590.47 779.00 526.16 L 779.00 458.83 L 770.70 470.16 C 763.56 479.91 727.18 529.40 701.53 564.25 C 697.18 570.16 693.32 575.00 692.95 575.00 C 690.34 575.00 644.94 483.24 605.37 398.01 C 599.12 384.54 594.00 373.18 594.00 372.76 C 594.00 372.34 599.13 372.00 605.40 372.00 L 616.80 372.00 L 623.72 381.75 C 627.53 387.11 643.70 409.27 659.66 431.00 C 675.62 452.73 689.31 471.51 690.08 472.75 C 690.85 473.99 691.74 475.00 692.05 475.00 C 692.37 475.00 696.70 469.94 701.68 463.75 C 724.17 435.79 758.34 393.41 767.00 382.73 L 776.50 371.01 L 826.75 371.00 C 854.39 371.00 876.98 371.34 876.96 371.75 C 876.94 372.16 874.35 374.26 871.21 376.41 C 868.07 378.55 859.76 384.36 852.75 389.32 L 840.00 398.32 L 840.00 503.75 L 840.00 609.18 L 853.65 627.34 C 861.16 637.33 868.44 646.74 869.84 648.25 C 871.53 650.09 871.90 650.98 870.94 650.94 C 870.15 650.90 858.47 647.16 845.00 642.61 Z M 262.00 544.30 C 262.00 523.02 262.38 506.03 262.84 506.55 C 263.98 507.83 302.40 560.18 303.34 561.73 C 303.87 562.60 297.94 565.94 283.39 572.98 C 272.00 578.49 262.53 583.00 262.34 583.00 C 262.15 583.00 262.00 565.59 262.00 544.30 Z M 759.00 581.73 C 742.32 574.16 719.89 562.87 720.16 562.18 C 720.87 560.35 761.54 506.15 762.25 506.08 C 762.66 506.04 763.00 523.33 763.00 544.50 C 763.00 565.67 762.66 582.97 762.25 582.93 C 761.84 582.90 760.38 582.35 759.00 581.73 Z" stroke-linecap="round"></path>
</g>
</g>
</g>

  </svg>
